<svg xmlns="http://www.w3.org/2000/svg" xmlns:xlink="http://www.w3.org/1999/xlink" viewBox="0 0 81 80.91"><defs><style>.cls-1{fill:#3865ab}.cls-2{fill:url(#linear-gradient)}.cls-3{fill:url(#linear-gradient-2)}.cls-4{fill:#84aff1}.cls-5{fill:url(#linear-gradient-3)}.cls-6{fill:url(#linear-gradient-4)}.cls-7{fill:url(#linear-gradient-5)}.cls-8{fill:url(#linear-gradient-6)}</style><linearGradient id="linear-gradient" x1="8" x2="70" y1="4" y2="4" gradientUnits="userSpaceOnUse"><stop offset="0" stop-color="#f2cc0c"/><stop offset="1" stop-color="#ff9830"/></linearGradient><linearGradient id="linear-gradient-2" x1="30" x2="51" y1="18.58" y2="18.58" xlink:href="#linear-gradient"/><linearGradient id="linear-gradient-3" x1="0" x2="37" y1="33.16" y2="33.16" xlink:href="#linear-gradient"/><linearGradient id="linear-gradient-4" x1="20" x2="45" y1="47.74" y2="47.74" xlink:href="#linear-gradient"/><linearGradient id="linear-gradient-5" x1="49" x2="60" y1="62.33" y2="62.33" xlink:href="#linear-gradient"/><linearGradient id="linear-gradient-6" x1="13" x2="73.5" y1="76.91" y2="76.91" xlink:href="#linear-gradient"/></defs><g id="Layer_2" data-name="Layer 2"><g id="Layer_1-2" data-name="Layer 1"><rect width="81" height="8" class="cls-1" rx="1"/><rect width="81" height="8" y="72.91" class="cls-1" rx="1"/><rect width="81" height="8" y="58.33" class="cls-1" rx="1"/><rect width="81" height="8" y="43.74" class="cls-1" rx="1"/><rect width="81" height="8" y="29.16" class="cls-1" rx="1"/><rect width="81" height="8" y="14.58" class="cls-1" rx="1"/><path d="M39,8H8V0H39ZM70,0H59V8H70Z" class="cls-2"/><rect width="21" height="8" x="30" y="14.58" class="cls-3"/><rect width="6" height="8" x="57.93" y="14.58" class="cls-4"/><rect width="6" height="8" x="11.17" y="14.58" class="cls-4"/><path d="M37,37.16H1a1,1,0,0,1-1-1v-6a1,1,0,0,1,1-1H37Z" class="cls-5"/><rect width="11" height="8" x="62.5" y="29.16" class="cls-4"/><rect width="25" height="8" x="20" y="43.74" class="cls-6"/><path d="M80,51.74H52v-8H80a1,1,0,0,1,1,1v6A1,1,0,0,1,80,51.74Z" class="cls-4"/><rect width="11" height="8" x="49" y="58.33" class="cls-7"/><path d="M30,66.33H1a1,1,0,0,1-1-1v-6a1,1,0,0,1,1-1H30Z" class="cls-4"/><path d="M24,80.91H13v-8H24Zm49.5-8h-33v8h33Z" class="cls-8"/></g></g></svg>